<svg width="949" height="1451" viewBox="0 0 949 1451" fill="none" xmlns="http://www.w3.org/2000/svg">
<path fill-rule="evenodd" clip-rule="evenodd" d="M337.288 204.775C283.394 257.722 241.438 345.092 200.074 447.11C183.985 486.79 138.776 505.914 99.0957 489.825C59.4159 473.736 40.2915 428.527 56.3802 388.847C96.9164 288.872 148.906 172.483 228.623 94.1666C269.993 53.5227 320.773 21.0409 382.881 7.18325C445.061 -6.69024 512.035 -0.430597 583.312 25.6404C661.557 54.2599 718.184 106.335 750.659 172.427C782.542 237.314 788.913 310.911 776.729 381.577C752.511 522.03 653.288 663.444 498.574 738.259C358.459 806.013 231.531 914.974 179.529 1019.18C154.333 1069.67 149.677 1112.61 160.752 1148.39C171.748 1183.9 202.702 1226.73 278.217 1268.11C316.109 1288.87 344.755 1295.32 366.119 1295.49C386.866 1295.66 405.532 1289.99 424.259 1278.48C465.569 1253.09 503.825 1201.86 545.578 1131.2C555.939 1113.66 566.779 1094.36 577.99 1074.41C606.978 1022.8 638.439 966.794 670.476 925.497C693.757 895.488 723.304 864.696 761.15 845.634C802.249 824.934 848.771 820.357 896.84 837.029C937.293 851.059 958.713 895.227 944.683 935.681C930.652 976.134 886.485 997.554 846.031 983.524C838.777 981.008 835.697 981.7 830.9 984.116C822.85 988.171 810.207 998.344 792.989 1020.54C768.313 1052.35 746.213 1091.75 720.182 1138.15C707.635 1160.52 694.174 1184.52 679.071 1210.08C637.237 1280.87 582.552 1363.19 505.448 1410.58C464.967 1435.46 418.057 1450.98 364.846 1450.54C312.25 1450.11 258.553 1434.14 203.705 1404.09C104.603 1349.78 38.9742 1279.33 12.6324 1194.24C-13.6305 1109.41 3.62127 1024.43 40.7882 949.949C113.512 804.214 273.132 675.042 431.072 598.667C541.331 545.35 608.319 445.753 623.928 355.23C631.656 310.409 626.344 271.027 611.496 240.808C597.239 211.794 572.086 186.637 530.049 171.261C481.044 153.337 444.558 152.29 416.647 158.518C388.665 164.761 362.722 179.787 337.288 204.775Z" fill="#161616"/>
<mask id="mask0_134_3256" style="mask-type:alpha" maskUnits="userSpaceOnUse" x="0" y="0" width="949" height="1451">
<path fill-rule="evenodd" clip-rule="evenodd" d="M337.288 204.775C283.394 257.722 241.438 345.092 200.074 447.11C183.985 486.79 138.776 505.914 99.0957 489.825C59.4159 473.736 40.2915 428.527 56.3802 388.847C96.9164 288.872 148.906 172.483 228.623 94.1666C269.993 53.5227 320.773 21.0409 382.881 7.18325C445.061 -6.69024 512.035 -0.430597 583.312 25.6404C661.557 54.2599 718.184 106.335 750.659 172.427C782.542 237.314 788.913 310.911 776.729 381.577C752.511 522.03 653.288 663.444 498.574 738.259C358.459 806.013 231.531 914.974 179.529 1019.18C154.333 1069.67 149.677 1112.61 160.752 1148.39C171.748 1183.9 202.702 1226.73 278.217 1268.11C316.109 1288.87 344.755 1295.32 366.119 1295.49C386.866 1295.66 405.532 1289.99 424.259 1278.48C465.569 1253.09 503.825 1201.86 545.578 1131.2C555.939 1113.66 566.779 1094.36 577.99 1074.41C606.978 1022.8 638.439 966.794 670.476 925.497C693.757 895.488 723.304 864.696 761.15 845.634C802.249 824.934 848.771 820.357 896.84 837.029C937.293 851.059 958.713 895.227 944.683 935.681C930.652 976.134 886.485 997.554 846.031 983.524C838.777 981.008 835.697 981.7 830.9 984.116C822.85 988.171 810.207 998.344 792.989 1020.54C768.313 1052.35 746.213 1091.75 720.182 1138.15C707.635 1160.52 694.174 1184.52 679.071 1210.08C637.237 1280.87 582.552 1363.19 505.448 1410.58C464.967 1435.46 418.057 1450.98 364.846 1450.54C312.25 1450.11 258.553 1434.14 203.705 1404.09C104.603 1349.78 38.9742 1279.33 12.6324 1194.24C-13.6305 1109.41 3.62127 1024.43 40.7882 949.949C113.512 804.214 273.132 675.042 431.072 598.667C541.331 545.35 608.319 445.753 623.928 355.23C631.656 310.409 626.344 271.027 611.496 240.808C597.239 211.794 572.086 186.637 530.049 171.261C481.044 153.337 444.558 152.29 416.647 158.518C388.665 164.761 362.722 179.787 337.288 204.775Z" fill="black"/>
</mask>
<g mask="url(#mask0_134_3256)">
<g filter="url(#filter0_f_134_3256)">
<path d="M128.227 396.337C210.127 194.344 316.117 -11.1813 556.68 76.8093C797.244 164.8 729.796 518.689 464.823 646.821C166.767 790.951 -108.273 1123.09 240.961 1314.46C611.923 1517.74 650.142 811.884 871.435 888.635" stroke="#282C33" stroke-width="100" stroke-linecap="round"/>
</g>
</g>
<defs>
<filter id="filter0_f_134_3256" x="-62.4648" y="-84.1123" width="1073.91" height="1575.49" filterUnits="userSpaceOnUse" color-interpolation-filters="sRGB">
<feFlood flood-opacity="0" result="BackgroundImageFix"/>
<feBlend mode="normal" in="SourceGraphic" in2="BackgroundImageFix" result="shape"/>
<feGaussianBlur stdDeviation="45" result="effect1_foregroundBlur_134_3256"/>
</filter>
</defs>
</svg>
