<svg width="1731" height="1626" viewBox="0 0 1731 1626" fill="none" xmlns="http://www.w3.org/2000/svg">
<path fill-rule="evenodd" clip-rule="evenodd" d="M365.307 613.426C375.776 688.248 421.012 773.966 478.37 867.927C500.68 904.473 489.139 952.185 452.593 974.495C416.047 996.804 368.335 985.263 346.025 948.717C289.815 856.638 227.232 745.585 211.747 634.912C203.711 577.476 207.834 517.338 233.665 459.181C259.527 400.957 304.42 350.865 367.795 309.106C437.364 263.265 512.915 248.757 585.355 261.999C656.473 274.999 719.405 313.685 768.939 365.537C867.388 468.596 921.967 632.499 889.999 801.354C861.048 954.274 873.057 1121.12 925.844 1224.94C951.421 1275.24 983.156 1304.54 1018.49 1316.93C1053.58 1329.23 1106.42 1329.85 1184.62 1293.8C1223.85 1275.71 1246.08 1256.52 1258.94 1239.46C1271.42 1222.89 1277.98 1204.51 1279.87 1182.61C1284.06 1134.31 1265.66 1073.07 1233.73 997.461C1225.81 978.698 1216.75 958.501 1207.39 937.614C1183.17 883.605 1156.89 824.987 1142.78 774.663C1132.52 738.094 1125.36 696.023 1132.57 654.265C1140.4 608.918 1164.41 568.81 1206.42 540.106C1241.77 515.95 1290.01 525.026 1314.17 560.379C1338.33 595.732 1329.25 643.973 1293.9 668.129C1287.56 672.461 1286.28 675.348 1285.37 680.641C1283.83 689.523 1284.48 705.737 1292.07 732.784C1302.94 771.546 1321.45 812.755 1343.24 861.293C1353.75 884.69 1365.02 909.789 1376.57 937.139C1408.56 1012.9 1442.16 1105.83 1434.35 1196C1430.25 1243.34 1414.8 1290.27 1382.78 1332.77C1351.12 1374.78 1306.33 1408.42 1249.53 1434.61C1146.91 1481.92 1051.23 1492.72 967.181 1463.25C883.381 1433.86 825.359 1369.41 787.631 1295.22C713.808 1150.04 705.015 944.886 737.65 772.51C760.432 652.174 720.27 539.064 656.819 472.642C625.402 439.754 590.593 420.582 557.472 414.527C525.672 408.714 490.485 413.953 453.109 438.581C409.538 467.291 386.98 495.988 375.371 522.123C363.733 548.325 360.367 578.115 365.307 613.426Z" fill="#161616"/>
<mask id="mask0_198_1677" style="mask-type:alpha" maskUnits="userSpaceOnUse" x="208" y="257" width="1228" height="1223">
<path fill-rule="evenodd" clip-rule="evenodd" d="M365.307 613.426C375.776 688.248 421.012 773.966 478.37 867.927C500.68 904.473 489.139 952.185 452.593 974.495C416.047 996.804 368.335 985.263 346.025 948.717C289.815 856.638 227.232 745.585 211.747 634.912C203.711 577.476 207.834 517.338 233.665 459.181C259.527 400.957 304.42 350.865 367.795 309.106C437.364 263.265 512.915 248.757 585.355 261.999C656.473 274.999 719.405 313.685 768.939 365.537C867.388 468.596 921.967 632.499 889.999 801.354C861.048 954.274 873.057 1121.12 925.844 1224.94C951.421 1275.24 983.156 1304.54 1018.49 1316.93C1053.58 1329.23 1106.42 1329.85 1184.62 1293.8C1223.85 1275.71 1246.08 1256.52 1258.94 1239.46C1271.42 1222.89 1277.98 1204.51 1279.87 1182.61C1284.06 1134.31 1265.66 1073.07 1233.73 997.461C1225.81 978.698 1216.75 958.501 1207.39 937.614C1183.17 883.605 1156.89 824.987 1142.78 774.663C1132.52 738.094 1125.36 696.023 1132.57 654.265C1140.4 608.918 1164.41 568.81 1206.42 540.106C1241.77 515.95 1290.01 525.026 1314.17 560.379C1338.33 595.732 1329.25 643.973 1293.9 668.129C1287.56 672.461 1286.28 675.348 1285.37 680.641C1283.83 689.523 1284.48 705.737 1292.07 732.784C1302.94 771.546 1321.45 812.755 1343.24 861.293C1353.75 884.69 1365.02 909.789 1376.57 937.139C1408.56 1012.9 1442.16 1105.83 1434.35 1196C1430.25 1243.34 1414.8 1290.27 1382.78 1332.77C1351.12 1374.78 1306.33 1408.42 1249.53 1434.61C1146.91 1481.92 1051.23 1492.72 967.181 1463.25C883.381 1433.86 825.359 1369.41 787.631 1295.22C713.808 1150.04 705.015 944.886 737.65 772.51C760.432 652.174 720.27 539.064 656.819 472.642C625.402 439.754 590.593 420.582 557.472 414.527C525.672 408.714 490.485 413.953 453.109 438.581C409.538 467.291 386.98 495.988 375.371 522.123C363.733 548.325 360.367 578.115 365.307 613.426Z" fill="black"/>
</mask>
<g mask="url(#mask0_198_1677)">
<g filter="url(#filter0_f_198_1677)">
<path d="M377.932 882.942C264.364 696.901 162.294 489.401 376.186 348.463C590.078 207.525 834.309 472.361 779.558 761.552C717.973 1086.85 821.163 1505.55 1182.81 1338.82C1566.96 1161.72 1022.5 710.88 1215.89 578.737" stroke="url(#paint0_linear_198_1677)" stroke-width="100" stroke-linecap="round"/>
</g>
</g>
<defs>
<filter id="filter0_f_198_1677" x="111.315" y="169.456" width="1352.39" height="1347.24" filterUnits="userSpaceOnUse" color-interpolation-filters="sRGB">
<feFlood flood-opacity="0" result="BackgroundImageFix"/>
<feBlend mode="normal" in="SourceGraphic" in2="BackgroundImageFix" result="shape"/>
<feGaussianBlur stdDeviation="45" result="effect1_foregroundBlur_198_1677"/>
</filter>
<linearGradient id="paint0_linear_198_1677" x1="656.383" y1="309.511" x2="1034.85" y2="1432.59" gradientUnits="userSpaceOnUse">
<stop stop-color="#181818"/>
<stop offset="1" stop-color="#6E3B96" stop-opacity="0.28"/>
</linearGradient>
</defs>
</svg>
