<svg width="857" height="592" viewBox="0 0 857 592" fill="none" xmlns="http://www.w3.org/2000/svg">
<g filter="url(#filter0_i_229_1668)">
<ellipse cx="586.892" cy="467.5" rx="128.5" ry="124.5" fill="url(#paint0_linear_229_1668)" fill-opacity="0.6"/>
</g>
<g filter="url(#filter1_i_229_1668)">
<ellipse cx="203.892" cy="159.5" rx="128.5" ry="124.5" fill="url(#paint1_linear_229_1668)"/>
</g>
<g filter="url(#filter2_i_229_1668)">
<ellipse cx="543.892" cy="124.5" rx="128.5" ry="124.5" fill="url(#paint2_linear_229_1668)"/>
</g>
<g filter="url(#filter3_i_229_1668)">
<ellipse cx="413.892" cy="296.5" rx="270.5" ry="261.5" fill="url(#paint3_linear_229_1668)" fill-opacity="0.56"/>
</g>
<g filter="url(#filter4_i_229_1668)">
<path d="M856.392 553.5C856.392 574.211 664.769 591 428.392 591C192.014 591 0.391614 574.211 0.391614 553.5C-10.1084 515.999 192.014 516 428.392 516C664.769 516 856.392 506.501 856.392 553.5Z" fill="url(#paint4_linear_229_1668)" fill-opacity="0.6"/>
</g>
<g clip-path="url(#clip0_229_1668)" filter="url(#filter5_i_229_1668)">
<path d="M675.184 447.5H153.64C142.486 447.5 133.412 438.426 133.412 427.271V364.5H695.412V427.271C695.412 438.426 686.338 447.5 675.184 447.5Z" fill="#E6E6E6"/>
<path d="M481.912 437H348.912V532H481.912V437Z" fill="#E6E6E6"/>
<path d="M489.912 520H340.912V532H489.912V520Z" fill="#E6E6E6"/>
<path d="M694.912 391H133.412V71.8818C133.412 64.2275 139.639 58 147.293 58H681.03C688.685 58 694.912 64.2275 694.912 71.8818V391Z" fill="#3F3D56"/>
<path d="M415.412 69.5C417.621 69.5 419.412 67.7091 419.412 65.5C419.412 63.2909 417.621 61.5 415.412 61.5C413.202 61.5 411.412 63.2909 411.412 65.5C411.412 67.7091 413.202 69.5 415.412 69.5Z" fill="white"/>
<path d="M681.412 72.5H146.412V373.5H681.412V72.5Z" fill="white"/>
<path d="M618.797 299.91C643.989 299.91 664.411 279.488 664.411 254.296C664.411 229.104 643.989 208.682 618.797 208.682C593.605 208.682 573.183 229.104 573.183 254.296C573.183 279.488 593.605 299.91 618.797 299.91Z" fill="#282C33"/>
<path d="M801.432 532.297C801.432 532.761 801.056 533.137 800.592 533.137H27.3916V531.457H800.592C801.056 531.457 801.432 531.833 801.432 532.297Z" fill="#121417"/>
<path d="M158.344 247.662L152.581 267.835L175.635 269.276L174.194 245.501L158.344 247.662Z" fill="#FFB6B6"/>
<path d="M254.121 330.01C259.592 331.878 264.99 330.569 266.178 327.087C267.366 323.606 263.894 319.27 258.421 317.402C256.245 316.626 253.915 316.383 251.626 316.692L228.345 309.071L225.002 320.072L248.307 326.417C249.93 328.062 251.924 329.294 254.121 330.01Z" fill="#FFB6B6"/>
<path d="M176.87 263.361C176.87 263.361 162.439 280.723 170.788 287.906C179.136 295.089 216.419 321.68 216.419 321.68L230.953 323.944L234.671 309.894L201.851 285.575L176.87 263.361Z" fill="#282C33"/>
<path d="M215.107 448.18L223.127 477.902L235.865 475.543L233.035 444.878L215.107 448.18Z" fill="#FFB6B6"/>
<path d="M225.014 476.014L220.297 476.958L216.522 489.696C216.522 489.696 222.655 492.055 222.655 496.772C222.655 501.49 225.014 504.792 234.45 504.32C243.885 503.849 244.828 504.32 244.828 500.546C244.828 496.772 237.752 476.958 237.752 476.958C237.752 476.958 238.224 468.938 232.563 469.41C226.901 469.881 225.014 476.014 225.014 476.014Z" fill="#2F2E41"/>
<path d="M171.98 447.718L172.528 478.497L185.457 479.309L190.172 448.877L171.98 447.718Z" fill="#FFB6B6"/>
<path d="M174.817 477.126L170.011 476.893L163.251 488.33C163.251 488.33 168.626 492.11 167.478 496.686C166.33 501.262 167.815 505.039 177.081 506.877C186.348 508.716 187.148 509.403 188.067 505.742C188.985 502.081 186.942 481.141 186.942 481.141C186.942 481.141 189.351 473.476 183.745 472.557C178.14 471.637 174.817 477.126 174.817 477.126Z" fill="#2F2E41"/>
<path d="M177.366 263.719L151.891 261.832L146.229 268.909C146.229 268.909 143.399 316.557 145.286 321.275C147.173 325.992 145.758 352.883 145.758 352.883L209.979 348.401L195.765 314.198L196.237 294.384L183.499 270.324L177.366 263.719Z" fill="#282C33"/>
<path d="M148.588 342.976C148.588 342.976 138.209 358.073 141.984 366.093C145.758 374.113 171.358 420.68 171.358 420.68L168.056 464.082L190.7 462.195L194.475 415.49L178.781 377.415L181.612 373.169L205.2 401.947L213.692 451.954L236.337 449.124L224.071 376L209.736 347.816L148.588 342.976Z" fill="#2F2E41"/>
<path d="M146.371 234.828C151.201 234.828 155.117 230.912 155.117 226.082C155.117 221.251 151.201 217.335 146.371 217.335C141.54 217.335 137.625 221.251 137.625 226.082C137.625 230.912 141.54 234.828 146.371 234.828Z" fill="#2F2E41"/>
<path d="M166.57 258.507C177.089 258.507 185.617 249.979 185.617 239.459C185.617 228.94 177.089 220.412 166.57 220.412C156.05 220.412 147.522 228.94 147.522 239.459C147.522 249.979 156.05 258.507 166.57 258.507Z" fill="#FFB6B6"/>
<path d="M160.53 260.341C158.505 261.414 152.809 257.477 150.771 252.201C149.46 248.807 146.272 249.372 144.238 245.139C143.052 242.673 146.592 240.26 146.008 238.128C144.95 234.264 146.276 230.807 146.445 230.384C147.904 226.728 150.054 226.813 151.788 222.558C152.831 219.997 152.162 219.697 153.039 218.386C155.571 214.604 162.918 214.46 168.099 216.249C169.893 216.868 174.212 213.551 177.718 215.954C181.848 218.784 184.596 226.944 183.964 228.439C183.58 229.347 181.441 228.422 176.994 229.121C172.876 229.768 178.311 232.845 173.676 233.894C168.196 235.134 166.546 234.002 165.027 235.736C163.422 237.569 163.125 241.278 164.59 243.48C165.317 244.572 166.254 244.958 166.136 245.718C165.922 247.107 164.689 246.352 164.284 247.825C163.814 249.538 167.717 251.784 167.378 252.302C167.31 252.407 167.017 252.52 163.206 251.051C161.684 250.464 161.097 249.958 160.926 250.145C160.65 250.448 159.282 253.49 160.837 254.784C163.256 256.797 161.579 257.597 162.682 259.174C163.82 260.8 161.816 259.66 160.53 260.341Z" fill="#2F2E41"/>
<path d="M164.99 370.395C168.03 375.313 173.031 377.73 176.16 375.795C179.289 373.86 179.36 368.306 176.319 363.387C175.131 361.406 173.485 359.738 171.521 358.523L158.378 337.851L148.809 344.225L162.781 363.927C162.99 366.229 163.748 368.447 164.99 370.395Z" fill="#FFB6B6"/>
<path d="M147.645 269.852C147.645 269.852 125.472 274.098 127.359 284.949C129.246 295.799 141.157 340.017 141.157 340.017L150.947 350.996L162.741 342.504L152.834 302.876L147.645 269.852Z" fill="#282C33"/>
<path d="M671.367 278.914C670.495 277.444 666.723 279.018 666.029 277.684C665.338 276.354 668.843 274.328 670.845 269.701C671.206 268.866 673.482 263.607 671.797 261.984C668.604 258.909 653.993 271.602 648.88 267.448C647.757 266.537 646.974 264.717 643.577 261.762C642.226 260.587 641.409 260.056 640.618 260.253C639.496 260.533 639.408 262.035 638.205 264.987C636.4 269.415 635.333 269.148 634.282 272.68C633.502 275.303 633.68 276.827 632.762 277.124C631.462 277.545 630.266 274.763 628.619 275.012C626.939 275.266 625.923 278.505 625.602 280.93C625 285.48 626.671 288.483 627.597 291.64C628.604 295.071 629.201 300.289 626.876 307.676L603.87 372.498C608.949 359.197 623.656 322.735 629.835 309.185C631.619 305.273 633.589 301.306 637.634 299.74C641.527 298.233 646.875 299.133 653.693 297.49C654.489 297.298 656.699 296.736 656.977 295.437C657.207 294.362 655.907 293.762 656.107 292.756C656.375 291.406 658.931 291.39 662.071 289.832C664.286 288.734 665.666 287.428 666.852 286.305C667.21 285.967 672.527 280.871 671.367 278.914Z" fill="#E6E6E6"/>
<path d="M580.851 313.039C579.878 313.042 579.562 315.348 578.707 315.303C577.855 315.259 577.872 312.954 576.179 310.636C575.873 310.218 573.949 307.584 572.666 307.943C570.235 308.622 572.25 319.456 568.735 320.767C567.964 321.055 566.845 320.915 564.415 321.729C563.448 322.053 562.952 322.301 562.821 322.746C562.634 323.377 563.346 323.854 564.448 325.297C566.1 327.46 565.661 327.906 567.092 329.441C568.153 330.581 568.953 330.934 568.834 331.47C568.665 332.229 566.955 332.013 566.602 332.894C566.242 333.792 567.538 335.225 568.636 336.082C570.696 337.69 572.651 337.737 574.468 338.193C576.443 338.689 579.176 339.901 582.131 343.174L607.308 373.169C602.245 366.838 588.592 349.099 583.725 342.157C582.32 340.153 580.941 338.041 581.34 335.604C581.723 333.258 583.708 330.893 584.869 327.073C585.005 326.627 585.366 325.38 584.809 324.868C584.348 324.446 583.678 324.91 583.242 324.522C582.657 324.001 583.386 322.742 583.528 320.751C583.628 319.347 583.385 318.293 583.176 317.387C583.113 317.114 582.147 313.034 580.851 313.039Z" fill="#E6E6E6"/>
<path d="M600.267 317.397L599.68 312.163L599.948 311.766C601.188 309.931 601.82 308.139 601.827 306.438C601.828 306.168 601.816 305.897 601.803 305.622C601.753 304.53 601.689 303.173 602.397 301.591C602.794 300.709 603.908 298.667 605.584 298.919C606.035 298.983 606.376 299.19 606.635 299.433C606.673 299.372 606.713 299.311 606.754 299.245C607.276 298.449 607.689 298.108 608.087 297.78C608.393 297.527 608.709 297.267 609.205 296.65C609.422 296.379 609.591 296.142 609.734 295.942C610.167 295.338 610.734 294.618 611.732 294.631C612.798 294.681 613.357 295.563 613.727 296.147C614.388 297.188 614.688 297.939 614.886 298.437C614.958 298.619 615.04 298.823 615.082 298.887C615.426 299.392 618.22 298.919 619.272 298.748C621.637 298.353 623.683 298.012 624.525 299.503C625.129 300.57 624.681 301.98 623.152 303.807C622.675 304.376 622.169 304.808 621.719 305.147C622.092 305.369 622.425 305.71 622.56 306.246C622.879 307.515 621.788 308.786 619.32 310.03C618.707 310.341 617.882 310.755 616.726 310.955C616.181 311.048 615.691 311.071 615.271 311.084C615.263 311.326 615.206 311.589 615.058 311.86C614.624 312.656 613.722 313.035 612.362 312.944C610.866 312.865 609.634 312.58 608.547 312.33C607.598 312.112 606.781 311.928 606.139 311.971C604.948 312.067 604.031 313.02 602.954 314.256L600.267 317.397Z" fill="#E6E6E6"/>
<path d="M602.986 286.233L598.072 288.128L597.62 287.969C595.531 287.235 593.638 287.079 591.99 287.503C591.728 287.57 591.47 287.651 591.207 287.733C590.163 288.059 588.867 288.464 587.157 288.181C586.203 288.021 583.945 287.461 583.764 285.776C583.711 285.324 583.825 284.941 583.994 284.629C583.926 284.608 583.857 284.585 583.783 284.561C582.88 284.259 582.446 283.945 582.027 283.644C581.705 283.412 581.373 283.172 580.651 282.85C580.334 282.708 580.061 282.604 579.832 282.517C579.138 282.251 578.297 281.886 578.056 280.917C577.835 279.873 578.546 279.109 579.017 278.602C579.857 277.699 580.507 277.219 580.938 276.901C581.096 276.785 581.273 276.653 581.324 276.597C581.725 276.136 580.559 273.554 580.126 272.579C579.145 270.392 578.296 268.5 579.525 267.306C580.403 266.451 581.881 266.527 584.036 267.543C584.707 267.86 585.254 268.24 585.696 268.589C585.816 268.172 586.062 267.763 586.546 267.497C587.692 266.867 589.198 267.599 591.027 269.671C591.483 270.185 592.094 270.878 592.58 271.946C592.809 272.449 592.955 272.917 593.074 273.32C593.311 273.267 593.579 273.255 593.878 273.33C594.758 273.547 595.354 274.324 595.611 275.662C595.915 277.129 595.951 278.393 595.984 279.508C596.015 280.481 596.044 281.319 596.248 281.929C596.643 283.056 597.797 283.702 599.266 284.43L602.986 286.233Z" fill="#E6E6E6"/>
<path d="M600.267 270.813L599.68 265.579L599.948 265.182C601.188 263.347 601.82 261.555 601.827 259.854C601.828 259.584 601.816 259.313 601.803 259.038C601.753 257.946 601.689 256.589 602.397 255.007C602.794 254.125 603.908 252.083 605.584 252.335C606.035 252.399 606.376 252.606 606.635 252.849C606.673 252.788 606.713 252.727 606.754 252.662C607.276 251.865 607.689 251.524 608.087 251.196C608.393 250.943 608.709 250.683 609.205 250.066C609.422 249.795 609.591 249.558 609.734 249.358C610.167 248.754 610.734 248.034 611.732 248.047C612.798 248.097 613.357 248.979 613.727 249.563C614.388 250.604 614.688 251.355 614.886 251.853C614.958 252.035 615.04 252.239 615.082 252.303C615.426 252.808 618.22 252.335 619.272 252.164C621.637 251.769 623.683 251.428 624.525 252.919C625.129 253.986 624.681 255.396 623.152 257.223C622.675 257.792 622.169 258.224 621.719 258.563C622.092 258.785 622.425 259.126 622.56 259.662C622.879 260.931 621.788 262.202 619.32 263.446C618.707 263.757 617.882 264.171 616.726 264.371C616.181 264.464 615.691 264.487 615.271 264.5C615.263 264.742 615.206 265.005 615.058 265.276C614.624 266.072 613.722 266.451 612.362 266.36C610.866 266.281 609.634 265.996 608.547 265.746C607.598 265.528 606.781 265.344 606.139 265.387C604.948 265.483 604.031 266.436 602.954 267.672L600.267 270.813Z" fill="#E6E6E6"/>
<path d="M605.622 372.412L604.525 371.725L603.246 371.872C603.226 371.753 603.156 371.48 603.052 371.053C602.479 368.712 600.734 361.59 599.278 350.374C598.262 342.544 597.687 334.495 597.568 326.445C597.45 318.383 597.831 312.279 598.137 307.373C598.368 303.673 598.649 300.15 598.924 296.718C599.657 287.549 600.349 278.888 599.834 269.299C599.721 267.158 599.482 262.702 596.879 257.961C595.368 255.211 593.288 252.77 590.695 250.708L592.308 248.681C595.17 250.96 597.471 253.665 599.148 256.718C602.034 261.975 602.295 266.83 602.42 269.162C602.943 278.92 602.244 287.665 601.504 296.923C601.231 300.342 600.95 303.85 600.72 307.535C600.417 312.395 600.039 318.446 600.156 326.404C600.273 334.358 600.841 342.309 601.844 350.04C603.282 361.115 605.001 368.131 605.566 370.436C605.867 371.667 605.93 371.925 605.622 372.412Z" fill="#E6E6E6"/>
<path d="M585.949 254.82C585.843 254.82 585.736 254.817 585.627 254.81C583.423 254.691 581.382 253.372 579.56 250.89C578.706 249.722 578.268 248.39 577.397 245.734C577.261 245.324 576.604 243.247 576.205 240.389C575.943 238.521 575.976 237.74 576.346 237.05C576.757 236.282 577.422 235.746 578.17 235.384C578.137 235.137 578.164 234.881 578.271 234.621C578.712 233.542 579.885 233.683 580.519 233.752C580.84 233.792 581.241 233.845 581.673 233.822C582.353 233.79 582.718 233.587 583.271 233.284C583.801 232.993 584.459 232.632 585.436 232.432C587.362 232.031 588.976 232.576 589.508 232.756C592.307 233.689 593.687 235.865 595.284 238.384C595.602 238.89 596.695 240.73 597.417 243.252C597.938 245.072 597.864 245.88 597.708 246.482C597.389 247.718 596.637 248.425 594.728 249.987C592.734 251.623 591.733 252.441 590.874 252.939C588.873 254.094 587.617 254.82 585.949 254.82Z" fill="#E6E6E6"/>
<path d="M471.775 326.703H268.709C260.534 326.703 253.884 320.052 253.884 311.877V158.325C253.884 150.151 260.534 143.5 268.709 143.5H471.775C479.95 143.5 486.601 150.151 486.601 158.325V311.877C486.601 320.052 479.95 326.703 471.775 326.703Z" fill="white"/>
<path d="M471.775 326.703H268.709C260.534 326.703 253.884 320.052 253.884 311.877V158.325C253.884 150.151 260.534 143.5 268.709 143.5H471.775C479.95 143.5 486.601 150.151 486.601 158.325V311.877C486.601 320.052 479.95 326.703 471.775 326.703ZM268.709 145.976C261.9 145.976 256.359 151.516 256.359 158.325V311.877C256.359 318.687 261.9 324.227 268.709 324.227H471.775C478.585 324.227 484.125 318.687 484.125 311.877V158.325C484.125 151.516 478.585 145.976 471.775 145.976H268.709Z" fill="#3F3D56"/>
<path d="M449.465 162.068C451.516 162.068 453.179 160.405 453.179 158.354C453.179 156.303 451.516 154.641 449.465 154.641C447.414 154.641 445.751 156.303 445.751 158.354C445.751 160.405 447.414 162.068 449.465 162.068Z" fill="#3F3D56"/>
<path d="M459.368 162.068C461.419 162.068 463.081 160.405 463.081 158.354C463.081 156.303 461.419 154.641 459.368 154.641C457.317 154.641 455.654 156.303 455.654 158.354C455.654 160.405 457.317 162.068 459.368 162.068Z" fill="#3F3D56"/>
<path d="M469.271 162.068C471.322 162.068 472.984 160.405 472.984 158.354C472.984 156.303 471.322 154.641 469.271 154.641C467.22 154.641 465.557 156.303 465.557 158.354C465.557 160.405 467.22 162.068 469.271 162.068Z" fill="#3F3D56"/>
<path d="M274.928 218.39C273.904 218.39 273.071 219.223 273.071 220.247C273.071 220.746 273.264 221.208 273.614 221.549C273.967 221.91 274.429 222.104 274.928 222.104H466.795C467.819 222.104 468.652 221.271 468.652 220.247C468.652 219.748 468.459 219.286 468.109 218.945C467.756 218.584 467.294 218.39 466.795 218.39H274.928Z" fill="#E6E6E6"/>
<path d="M432.135 217.771V222.723H274.927C274.247 222.723 273.628 222.451 273.182 221.993C272.724 221.547 272.452 220.928 272.452 220.247C272.452 218.886 273.566 217.771 274.927 217.771H432.135Z" fill="#5D5D62"/>
<path d="M463.7 208.487H438.943C436.213 208.487 433.992 206.267 433.992 203.536C433.992 200.805 436.213 198.584 438.943 198.584H463.7C466.43 198.584 468.652 200.805 468.652 203.536C468.652 206.267 466.43 208.487 463.7 208.487Z" fill="#E6E6E6"/>
<path d="M301.541 182.493H276.784C274.054 182.493 271.833 180.272 271.833 177.541C271.833 174.81 274.054 172.59 276.784 172.59H301.541C304.271 172.59 306.492 174.81 306.492 177.541C306.492 180.272 304.271 182.493 301.541 182.493Z" fill="#E6E6E6"/>
<path d="M274.928 274.094C273.904 274.094 273.071 274.927 273.071 275.951C273.071 276.45 273.264 276.912 273.614 277.252C273.967 277.614 274.429 277.807 274.928 277.807H466.795C467.819 277.807 468.652 276.974 468.652 275.951C468.652 275.451 468.459 274.99 468.109 274.649C467.756 274.287 467.294 274.094 466.795 274.094H274.928Z" fill="#E6E6E6"/>
<path d="M336.82 273.475V278.427H274.927C274.247 278.427 273.628 278.154 273.182 277.696C272.724 277.251 272.452 276.632 272.452 275.951C272.452 274.589 273.566 273.475 274.927 273.475H336.82Z" fill="#5D5D62"/>
<path d="M463.7 264.191H438.943C436.213 264.191 433.992 261.97 433.992 259.24C433.992 256.509 436.213 254.288 438.943 254.288H463.7C466.43 254.288 468.652 256.509 468.652 259.24C468.652 261.97 466.43 264.191 463.7 264.191Z" fill="#E6E6E6"/>
</g>
<defs>
<filter id="filter0_i_229_1668" x="458.392" y="343" width="257" height="253" filterUnits="userSpaceOnUse" color-interpolation-filters="sRGB">
<feFlood flood-opacity="0" result="BackgroundImageFix"/>
<feBlend mode="normal" in="SourceGraphic" in2="BackgroundImageFix" result="shape"/>
<feColorMatrix in="SourceAlpha" type="matrix" values="0 0 0 0 0 0 0 0 0 0 0 0 0 0 0 0 0 0 127 0" result="hardAlpha"/>
<feOffset dy="4"/>
<feGaussianBlur stdDeviation="8"/>
<feComposite in2="hardAlpha" operator="arithmetic" k2="-1" k3="1"/>
<feColorMatrix type="matrix" values="0 0 0 0 0 0 0 0 0 0 0 0 0 0 0 0 0 0 0.25 0"/>
<feBlend mode="normal" in2="shape" result="effect1_innerShadow_229_1668"/>
</filter>
<filter id="filter1_i_229_1668" x="75.3916" y="35" width="257" height="253" filterUnits="userSpaceOnUse" color-interpolation-filters="sRGB">
<feFlood flood-opacity="0" result="BackgroundImageFix"/>
<feBlend mode="normal" in="SourceGraphic" in2="BackgroundImageFix" result="shape"/>
<feColorMatrix in="SourceAlpha" type="matrix" values="0 0 0 0 0 0 0 0 0 0 0 0 0 0 0 0 0 0 127 0" result="hardAlpha"/>
<feOffset dy="4"/>
<feGaussianBlur stdDeviation="8"/>
<feComposite in2="hardAlpha" operator="arithmetic" k2="-1" k3="1"/>
<feColorMatrix type="matrix" values="0 0 0 0 0 0 0 0 0 0 0 0 0 0 0 0 0 0 0.25 0"/>
<feBlend mode="normal" in2="shape" result="effect1_innerShadow_229_1668"/>
</filter>
<filter id="filter2_i_229_1668" x="415.392" y="0" width="257" height="253" filterUnits="userSpaceOnUse" color-interpolation-filters="sRGB">
<feFlood flood-opacity="0" result="BackgroundImageFix"/>
<feBlend mode="normal" in="SourceGraphic" in2="BackgroundImageFix" result="shape"/>
<feColorMatrix in="SourceAlpha" type="matrix" values="0 0 0 0 0 0 0 0 0 0 0 0 0 0 0 0 0 0 127 0" result="hardAlpha"/>
<feOffset dy="4"/>
<feGaussianBlur stdDeviation="8"/>
<feComposite in2="hardAlpha" operator="arithmetic" k2="-1" k3="1"/>
<feColorMatrix type="matrix" values="0 0 0 0 0 0 0 0 0 0 0 0 0 0 0 0 0 0 0.25 0"/>
<feBlend mode="normal" in2="shape" result="effect1_innerShadow_229_1668"/>
</filter>
<filter id="filter3_i_229_1668" x="143.392" y="35" width="541" height="527" filterUnits="userSpaceOnUse" color-interpolation-filters="sRGB">
<feFlood flood-opacity="0" result="BackgroundImageFix"/>
<feBlend mode="normal" in="SourceGraphic" in2="BackgroundImageFix" result="shape"/>
<feColorMatrix in="SourceAlpha" type="matrix" values="0 0 0 0 0 0 0 0 0 0 0 0 0 0 0 0 0 0 127 0" result="hardAlpha"/>
<feOffset dy="4"/>
<feGaussianBlur stdDeviation="8"/>
<feComposite in2="hardAlpha" operator="arithmetic" k2="-1" k3="1"/>
<feColorMatrix type="matrix" values="0 0 0 0 0 0 0 0 0 0 0 0 0 0 0 0 0 0 0.25 0"/>
<feBlend mode="normal" in2="shape" result="effect1_innerShadow_229_1668"/>
</filter>
<filter id="filter4_i_229_1668" x="0" y="515.213" width="856.392" height="79.7871" filterUnits="userSpaceOnUse" color-interpolation-filters="sRGB">
<feFlood flood-opacity="0" result="BackgroundImageFix"/>
<feBlend mode="normal" in="SourceGraphic" in2="BackgroundImageFix" result="shape"/>
<feColorMatrix in="SourceAlpha" type="matrix" values="0 0 0 0 0 0 0 0 0 0 0 0 0 0 0 0 0 0 127 0" result="hardAlpha"/>
<feOffset dy="4"/>
<feGaussianBlur stdDeviation="8"/>
<feComposite in2="hardAlpha" operator="arithmetic" k2="-1" k3="1"/>
<feColorMatrix type="matrix" values="0 0 0 0 0 0 0 0 0 0 0 0 0 0 0 0 0 0 0.25 0"/>
<feBlend mode="normal" in2="shape" result="effect1_innerShadow_229_1668"/>
</filter>
<filter id="filter5_i_229_1668" x="27.3916" y="58" width="774.04" height="479.137" filterUnits="userSpaceOnUse" color-interpolation-filters="sRGB">
<feFlood flood-opacity="0" result="BackgroundImageFix"/>
<feBlend mode="normal" in="SourceGraphic" in2="BackgroundImageFix" result="shape"/>
<feColorMatrix in="SourceAlpha" type="matrix" values="0 0 0 0 0 0 0 0 0 0 0 0 0 0 0 0 0 0 127 0" result="hardAlpha"/>
<feOffset dy="4"/>
<feGaussianBlur stdDeviation="8"/>
<feComposite in2="hardAlpha" operator="arithmetic" k2="-1" k3="1"/>
<feColorMatrix type="matrix" values="0 0 0 0 0 0 0 0 0 0 0 0 0 0 0 0 0 0 0.25 0"/>
<feBlend mode="normal" in2="shape" result="effect1_innerShadow_229_1668"/>
</filter>
<linearGradient id="paint0_linear_229_1668" x1="586.892" y1="343" x2="586.892" y2="592" gradientUnits="userSpaceOnUse">
<stop offset="0.286458" stop-color="#8000FF"/>
<stop offset="1" stop-color="#888989" stop-opacity="0"/>
</linearGradient>
<linearGradient id="paint1_linear_229_1668" x1="203.892" y1="35" x2="203.892" y2="284" gradientUnits="userSpaceOnUse">
<stop stop-color="#583C79"/>
<stop offset="1" stop-color="#282C33"/>
</linearGradient>
<linearGradient id="paint2_linear_229_1668" x1="543.892" y1="0" x2="543.892" y2="249" gradientUnits="userSpaceOnUse">
<stop stop-color="#583C79"/>
<stop offset="1" stop-color="#282C33"/>
</linearGradient>
<linearGradient id="paint3_linear_229_1668" x1="413.892" y1="35" x2="241.826" y2="652.469" gradientUnits="userSpaceOnUse">
<stop stop-color="#6E3B96"/>
<stop offset="1" stop-color="#282C33"/>
</linearGradient>
<linearGradient id="paint4_linear_229_1668" x1="436.391" y1="474" x2="431.391" y2="647" gradientUnits="userSpaceOnUse">
<stop offset="0.90625"/>
<stop offset="1" stop-color="white"/>
</linearGradient>
<clipPath id="clip0_229_1668">
<rect width="774.04" height="475.137" fill="white" transform="translate(27.3916 58)"/>
</clipPath>
</defs>
</svg>
